<svg xmlns="http://www.w3.org/2000/svg" viewBox="0 0 32 32" width="32" height="32">
  <defs>
    <radialGradient id="bgGradient" cx="50%" cy="30%" r="70%">
      <stop offset="0%" style="stop-color:#bb8fce;stop-opacity:1" />
      <stop offset="100%" style="stop-color:#6b2c91;stop-opacity:1" />
    </radialGradient>
    
    <linearGradient id="pawGradientSmall" x1="0%" y1="0%" x2="100%" y2="100%">
      <stop offset="0%" style="stop-color:#ffffff;stop-opacity:0.9" />
      <stop offset="100%" style="stop-color:#8e44ad;stop-opacity:1" />
    </linearGradient>
    
    <filter id="glow" x="-50%" y="-50%" width="200%" height="200%">
      <feGaussianBlur stdDeviation="1" result="coloredBlur"/>
      <feMerge> 
        <feMergeNode in="coloredBlur"/>
        <feMergeNode in="SourceGraphic"/>
      </feMerge>
    </filter>
  </defs>
  
  <!-- Background with gradient -->
  <rect width="32" height="32" rx="8" fill="url(#bgGradient)"/>
  
  <!-- Left paw - simplified but detailed -->
  <g transform="translate(5, 7)" filter="url(#glow)">
    <ellipse cx="4" cy="6" rx="3.5" ry="3" fill="url(#pawGradientSmall)"/>
    <ellipse cx="2" cy="2" rx="1.5" ry="2" fill="url(#pawGradientSmall)"/>
    <ellipse cx="4" cy="1" rx="1.5" ry="2" fill="url(#pawGradientSmall)"/>
    <ellipse cx="6" cy="2" rx="1.5" ry="2" fill="url(#pawGradientSmall)"/>
  </g>
  
  <!-- Right paw - simplified but detailed -->
  <g transform="translate(17, 11)" filter="url(#glow)">
    <ellipse cx="4" cy="6" rx="3.5" ry="3" fill="url(#pawGradientSmall)"/>
    <ellipse cx="2" cy="2" rx="1.5" ry="2" fill="url(#pawGradientSmall)"/>
    <ellipse cx="4" cy="1" rx="1.5" ry="2" fill="url(#pawGradientSmall)"/>
    <ellipse cx="6" cy="2" rx="1.5" ry="2" fill="url(#pawGradientSmall)"/>
  </g>
  
  <!-- Heart -->
  <path d="M14 8 c-1.5-4 -6-4 -4.5 0 c1.5-4 6-4 4.5 0 c0 2 -2.25 4 -2.25 4 s-2.25-2 -2.25-4z" 
        fill="#ff6b9d" opacity="0.9" filter="url(#glow)"/>
</svg>
