<svg xmlns="http://www.w3.org/2000/svg" viewBox="0 0 120 120" width="120" height="120">
  <!-- Advanced Gradients and Filters -->
  <defs>
    <radialGradient id="mainGradient" cx="50%" cy="30%" r="70%">
      <stop offset="0%" style="stop-color:#e8d8f5;stop-opacity:1" />
      <stop offset="30%" style="stop-color:#bb8fce;stop-opacity:1" />
      <stop offset="70%" style="stop-color:#8e44ad;stop-opacity:1" />
      <stop offset="100%" style="stop-color:#6b2c91;stop-opacity:1" />
    </radialGradient>
    
    <linearGradient id="pawGradient" x1="0%" y1="0%" x2="100%" y2="100%">
      <stop offset="0%" style="stop-color:#ffffff;stop-opacity:0.9" />
      <stop offset="50%" style="stop-color:#8e44ad;stop-opacity:1" />
      <stop offset="100%" style="stop-color:#6b2c91;stop-opacity:1" />
    </linearGradient>
    
    <linearGradient id="heartGradient" x1="0%" y1="0%" x2="100%" y2="100%">
      <stop offset="0%" style="stop-color:#ff6b9d;stop-opacity:1" />
      <stop offset="100%" style="stop-color:#e74c3c;stop-opacity:1" />
    </linearGradient>
    
    <filter id="glowEffect" x="-50%" y="-50%" width="200%" height="200%">
      <feGaussianBlur stdDeviation="3" result="coloredBlur"/>
      <feMerge> 
        <feMergeNode in="coloredBlur"/>
        <feMergeNode in="SourceGraphic"/>
      </feMerge>
    </filter>
    
    <filter id="shadowEffect" x="-50%" y="-50%" width="200%" height="200%">
      <feDropShadow dx="3" dy="5" stdDeviation="4" flood-color="#6b2c91" flood-opacity="0.3"/>
    </filter>
    
    <pattern id="sparklePattern" x="0" y="0" width="20" height="20" patternUnits="userSpaceOnUse">
      <circle cx="5" cy="5" r="1" fill="#ffffff" opacity="0.6">
        <animate attributeName="opacity" values="0.3;1;0.3" dur="2s" repeatCount="indefinite"/>
      </circle>
      <circle cx="15" cy="10" r="0.5" fill="#ffffff" opacity="0.4">
        <animate attributeName="opacity" values="0.2;0.8;0.2" dur="3s" repeatCount="indefinite"/>
      </circle>
    </pattern>
  </defs>
  
  <!-- Background with glow -->
  <circle cx="60" cy="60" r="55" fill="url(#mainGradient)" filter="url(#shadowEffect)" opacity="0.1"/>
  <circle cx="60" cy="60" r="52" fill="url(#mainGradient)" filter="url(#glowEffect)"/>
  
  <!-- Sparkle overlay -->
  <circle cx="60" cy="60" r="50" fill="url(#sparklePattern)" opacity="0.3"/>
  
  <!-- Enhanced Left Paw -->
  <g transform="translate(30, 40)" filter="url(#shadowEffect)">
    <!-- Main paw pad with gradient -->
    <ellipse cx="12" cy="18" rx="10" ry="8" fill="url(#pawGradient)" opacity="0.95"/>
    <ellipse cx="12" cy="16" rx="8" ry="6" fill="#ffffff" opacity="0.3"/>
    
    <!-- Toe pads with better positioning -->
    <ellipse cx="6" cy="6" rx="3.5" ry="5" fill="url(#pawGradient)" opacity="0.95"/>
    <ellipse cx="6" cy="5" rx="2.5" ry="3.5" fill="#ffffff" opacity="0.3"/>
    
    <ellipse cx="12" cy="3" rx="3.5" ry="5" fill="url(#pawGradient)" opacity="0.95"/>
    <ellipse cx="12" cy="2" rx="2.5" ry="3.5" fill="#ffffff" opacity="0.3"/>
    
    <ellipse cx="18" cy="6" rx="3.5" ry="5" fill="url(#pawGradient)" opacity="0.95"/>
    <ellipse cx="18" cy="5" rx="2.5" ry="3.5" fill="#ffffff" opacity="0.3"/>
    
    <ellipse cx="22" cy="12" rx="3" ry="4" fill="url(#pawGradient)" opacity="0.95"/>
    <ellipse cx="22" cy="11" rx="2" ry="3" fill="#ffffff" opacity="0.3"/>
  </g>
  
  <!-- Enhanced Right Paw -->
  <g transform="translate(65, 50)" filter="url(#shadowEffect)">
    <!-- Main paw pad with gradient -->
    <ellipse cx="12" cy="18" rx="10" ry="8" fill="url(#pawGradient)" opacity="0.95"/>
    <ellipse cx="12" cy="16" rx="8" ry="6" fill="#ffffff" opacity="0.3"/>
    
    <!-- Toe pads with better positioning -->
    <ellipse cx="6" cy="6" rx="3.5" ry="5" fill="url(#pawGradient)" opacity="0.95"/>
    <ellipse cx="6" cy="5" rx="2.5" ry="3.5" fill="#ffffff" opacity="0.3"/>
    
    <ellipse cx="12" cy="3" rx="3.5" ry="5" fill="url(#pawGradient)" opacity="0.95"/>
    <ellipse cx="12" cy="2" rx="2.5" ry="3.5" fill="#ffffff" opacity="0.3"/>
    
    <ellipse cx="18" cy="6" rx="3.5" ry="5" fill="url(#pawGradient)" opacity="0.95"/>
    <ellipse cx="18" cy="5" rx="2.5" ry="3.5" fill="#ffffff" opacity="0.3"/>
    
    <ellipse cx="22" cy="12" rx="3" ry="4" fill="url(#pawGradient)" opacity="0.95"/>
    <ellipse cx="22" cy="11" rx="2" ry="3" fill="#ffffff" opacity="0.3"/>
  </g>
  
  <!-- Enhanced Heart with animation -->
  <g transform="translate(60, 35)" filter="url(#glowEffect)">
    <path d="M0 8 c-4-12 -20-12 -16 0 c4-12 20-12 16 0 c0 6 -8 14 -8 14 s-8-8 -8-14z" 
          fill="url(#heartGradient)" opacity="0.9">
      <animateTransform attributeName="transform" type="scale" 
                        values="1;1.1;1" dur="2s" repeatCount="indefinite"/>
    </path>
    <path d="M0 8 c-2-6 -10-6 -8 0 c2-6 10-6 8 0 c0 3 -4 7 -4 7 s-4-4 -4-7z" 
          fill="#ffffff" opacity="0.6"/>
  </g>
  
  <!-- Connection lines between paws -->
  <path d="M42 55 Q60 45 77 65" stroke="url(#pawGradient)" stroke-width="2" 
        fill="none" opacity="0.4" stroke-dasharray="5,3">
    <animate attributeName="stroke-dashoffset" values="0;-16" dur="3s" repeatCount="indefinite"/>
  </path>
  
  <!-- Decorative elements -->
  <circle cx="25" cy="25" r="2" fill="#ffffff" opacity="0.7">
    <animate attributeName="opacity" values="0.3;0.9;0.3" dur="4s" repeatCount="indefinite"/>
  </circle>
  <circle cx="95" cy="30" r="1.5" fill="#ffffff" opacity="0.6">
    <animate attributeName="opacity" values="0.2;0.8;0.2" dur="3s" repeatCount="indefinite"/>
  </circle>
  <circle cx="20" cy="95" r="1.5" fill="#ffffff" opacity="0.5">
    <animate attributeName="opacity" values="0.4;1;0.4" dur="5s" repeatCount="indefinite"/>
  </circle>
  <circle cx="100" cy="90" r="2" fill="#ffffff" opacity="0.6">
    <animate attributeName="opacity" values="0.3;0.7;0.3" dur="2.5s" repeatCount="indefinite"/>
  </circle>
</svg>
